# xmcd CD database file
#
# Track frame offsets:
#	182
#	12930
#	23810
#	37817
#	52435
#	66510
#	77102
#	88167
#	102035
#	117965
#	127505
#	141867
#	155625
#
# Disc length: 2249 seconds
#
# Revision: 0
# Processed by: cddbd v1.4PL0 Copyright (c) Steve Scherf et al.
# Submitted via: CDex 1.50Beta7
#
DISCID=a908c70d
DTITLE=Kate Smith - Best of Kate Smith
DYEAR=1991
DGENRE=Jazz
TTITLE0=God Bless America
TTITLE1=Ridin' High
TTITLE2=The Very Thought Of You
TTITLE3=Love Walked In
TTITLE4=Love Is Here To Stay
TTITLE5=You
TTITLE6=Who Cares
TTITLE7=If I Had You
TTITLE8=But Not For Me
TTITLE9='Swonderful
TTITLE10=They Can't Take That Away From Me
TTITLE11=The Nearness Of You
TTITLE12=It Could Happen To You
EXTD=YEAR: 1991
EXTT0=
EXTT1=
EXTT2=
EXTT3=
EXTT4=
EXTT5=
EXTT6=
EXTT7=
EXTT8=
EXTT9=
EXTT10=
EXTT11=
EXTT12=
PLAYORDER=
